<svg xmlns="http://www.w3.org/2000/svg" viewBox="0 0 180 180">
  <!-- iOS角丸用に背景を全面塗り -->
  <defs>
    <linearGradient id="bg" x1="0" y1="0" x2="0" y2="1">
      <stop offset="0%" stop-color="#ffd1b0"/>
      <stop offset="100%" stop-color="#fff4e6"/>
    </linearGradient>
  </defs>
  <rect width="180" height="180" fill="url(#bg)"/>

  <!-- 笹の装飾 (背景) -->
  <g opacity="0.25">
    <path d="M10,160 Q40,130 60,150 Q40,160 10,160 Z" fill="#5a8a3a" transform="rotate(-15 35 155)"/>
    <path d="M120,30 Q150,10 170,25 Q145,35 120,30 Z" fill="#5a8a3a" transform="rotate(20 145 22)"/>
  </g>

  <!-- レッサーパンダの顔 (中央配置) -->
  <g transform="translate(20 20) scale(1.16)">
    <!-- 耳 -->
    <ellipse cx="22" cy="28" rx="13" ry="14" fill="#b6562d"/>
    <ellipse cx="98" cy="28" rx="13" ry="14" fill="#b6562d"/>
    <ellipse cx="22" cy="30" rx="6" ry="7" fill="#fff4e6"/>
    <ellipse cx="98" cy="30" rx="6" ry="7" fill="#fff4e6"/>
    <!-- 顔 -->
    <ellipse cx="60" cy="62" rx="36" ry="32" fill="#c96a3a"/>
    <!-- 頬の白 -->
    <ellipse cx="26" cy="68" rx="14" ry="17" fill="#fff4e6"/>
    <ellipse cx="94" cy="68" rx="14" ry="17" fill="#fff4e6"/>
    <!-- 鼻筋 -->
    <path d="M60,30 Q46,42 50,76 Q60,84 70,76 Q74,42 60,30 Z" fill="#fff4e6"/>
    <!-- マスク -->
    <path d="M22,56 Q34,48 42,58 Q38,68 28,68 Z" fill="#8a3f1f"/>
    <path d="M98,56 Q86,48 78,58 Q82,68 92,68 Z" fill="#8a3f1f"/>
    <!-- 頬チーク -->
    <circle cx="22" cy="74" r="5" fill="#ffb3c1" opacity="0.7"/>
    <circle cx="98" cy="74" r="5" fill="#ffb3c1" opacity="0.7"/>
    <!-- 目 -->
    <circle cx="35" cy="60" r="5" fill="#1a0e07"/>
    <circle cx="85" cy="60" r="5" fill="#1a0e07"/>
    <circle cx="36.5" cy="58" r="2" fill="#fff"/>
    <circle cx="86.5" cy="58" r="2" fill="#fff"/>
    <!-- 鼻 -->
    <ellipse cx="60" cy="76" rx="3.5" ry="2.6" fill="#1a0e07"/>
    <!-- 口 -->
    <path d="M60,80 Q55,86 50,84 M60,80 Q65,86 70,84" stroke="#1a0e07" stroke-width="2" fill="none" stroke-linecap="round"/>
  </g>

  <!-- アプリ名 -->
  <text x="90" y="160" text-anchor="middle" font-family="-apple-system, sans-serif" font-size="20" font-weight="800" fill="#8a3f1f" letter-spacing="1">LesserPay</text>
</svg>
